# xmcd
#
# Track frame offsets: 
#        150
#        14087
#        30966
#        41603
#        54592
#        72329
#        87868
#        110358
#        122530
#        142651
#        161831
#        177051
#        188129
#
# Disc length: 2694 seconds
#
# Revision: 1
# Processed by: cddbd v1.5.2PL0 Copyright (c) Steve Scherf et al.
# Submitted via: ExactAudioCopy v1.3
#
DISCID=a30a840d
DTITLE=Cowboy Joe and The Babcocks - Ridin' West (2002)
DYEAR=2002
DGENRE=Western Swing
TTITLE0=Song Of The Prairie
TTITLE1=Ghost Train
TTITLE2=Doggone Cowboy
TTITLE3=Up In Cherry Country
TTITLE4=Nebraska
TTITLE5=Bronc Riders Lament
TTITLE6=Cowboy Medley
TTITLE7=My Adobe Hacienda
TTITLE8=Ballad Of The Broken Arrow
TTITLE9=Ballad Of Lee Ann
TTITLE10=Every Man's Mirage
TTITLE11=Prairie Fire
TTITLE12=Brand Of The Cross
EXTD=
EXTT0=
EXTT1=
EXTT2=
EXTT3=
EXTT4=
EXTT5=
EXTT6=
EXTT7=
EXTT8=
EXTT9=
EXTT10=
EXTT11=
EXTT12=
PLAYORDER=
